<svg width="17" height="13" viewBox="0 0 17 13" fill="none" xmlns="http://www.w3.org/2000/svg">
<path fill-rule="evenodd" clip-rule="evenodd" d="M4.49322 12.7959C7.19055 12.7959 8.40037 10.6984 8.40037 6.54448C8.40037 2.3906 7.19055 0 4.49322 0C1.7959 0 0 2.3906 0 6.54448C0 10.6984 1.7959 12.7959 4.49322 12.7959ZM4.89171 10.1585C5.86744 10.1585 6.25072 9.18829 6.25072 7.32585C6.25072 5.46341 5.86744 4.49316 4.89171 4.49316C3.91598 4.49316 3.125 5.46341 3.125 7.32585C3.125 9.18829 3.91598 10.1585 4.89171 10.1585Z" fill="#D9D9D9"/>
<path fill-rule="evenodd" clip-rule="evenodd" d="M12.3848 12.8936C14.894 12.8936 16.0194 10.9402 16.0194 7.07166C16.0194 3.20316 14.894 0.976807 12.3848 0.976807C9.87568 0.976807 8.20508 3.20316 8.20508 7.07166C8.20508 10.9402 9.87568 12.8936 12.3848 12.8936ZM12.2051 10.1584C13.1199 10.1584 13.4792 9.25511 13.4792 7.52112C13.4792 5.78712 13.1199 4.88379 12.2051 4.88379C11.2904 4.88379 10.5488 5.78712 10.5488 7.52112C10.5488 9.25511 11.2904 10.1584 12.2051 10.1584Z" fill="#D9D9D9"/>
</svg>
